<svg xmlns="http://www.w3.org/2000/svg" width="233.21999999999997" height="35" viewBox="0 0 233.21999999999997 35"><rect class="svg__rect" x="0" y="0" width="79.08" height="35" fill="#31C4F3"/><rect class="svg__rect" x="77.08" y="0" width="156.14" height="35" fill="#389AD5"/><path class="svg__text" d="M15.78 22L14.31 22L14.31 13.47L15.78 13.47L15.78 22ZM28.05 22L26.57 22L26.57 13.47L28.05 13.47L28.05 17.02L31.87 17.02L31.87 13.47L33.34 13.47L33.34 22L31.87 22L31.87 18.21L28.05 18.21L28.05 22ZM38.86 22L37.32 22L40.54 13.47L41.87 13.47L45.10 22L43.56 22L42.86 20.01L39.55 20.01L38.86 22ZM41.21 15.28L39.97 18.82L42.44 18.82L41.21 15.28ZM51.35 22L48.30 13.47L49.92 13.47L52.06 20.14L54.23 13.47L55.86 13.47L52.79 22L51.35 22ZM65.39 22L59.81 22L59.81 13.47L65.35 13.47L65.35 14.66L61.29 14.66L61.29 17.02L64.80 17.02L64.80 18.19L61.29 18.19L61.29 20.82L65.39 20.82L65.39 22Z" fill="#FFFFFF"/><path class="svg__text" d="M92.69 22L90.26 22L93.97 13.60L96.31 13.60L100.03 22L97.56 22L96.90 20.37L93.35 20.37L92.69 22ZM95.12 15.93L94.04 18.61L96.20 18.61L95.12 15.93ZM110.57 21.24L110.57 21.24L111.35 19.49Q111.91 19.86 112.65 20.09Q113.40 20.32 114.12 20.32L114.12 20.32Q115.48 20.32 115.49 19.64L115.49 19.64Q115.49 19.28 115.10 19.11Q114.71 18.93 113.84 18.74L113.84 18.74Q112.89 18.53 112.26 18.30Q111.62 18.06 111.17 17.55Q110.72 17.03 110.72 16.16L110.72 16.16Q110.72 15.39 111.13 14.77Q111.55 14.15 112.39 13.79Q113.22 13.43 114.43 13.43L114.43 13.43Q115.26 13.43 116.06 13.62Q116.87 13.80 117.48 14.17L117.48 14.17L116.75 15.93Q115.55 15.28 114.42 15.28L114.42 15.28Q113.71 15.28 113.39 15.49Q113.06 15.70 113.06 16.04L113.06 16.04Q113.06 16.37 113.45 16.54Q113.83 16.71 114.68 16.89L114.68 16.89Q115.64 17.10 116.27 17.33Q116.90 17.56 117.37 18.07Q117.83 18.58 117.83 19.46L117.83 19.46Q117.83 20.21 117.41 20.83Q116.99 21.44 116.15 21.80Q115.31 22.17 114.11 22.17L114.11 22.17Q113.09 22.17 112.13 21.92Q111.17 21.67 110.57 21.24ZM124.20 15.48L121.61 15.48L121.61 13.60L129.14 13.60L129.14 15.48L126.57 15.48L126.57 22L124.20 22L124.20 15.48ZM134.93 22L132.50 22L136.21 13.60L138.55 13.60L142.27 22L139.80 22L139.14 20.37L135.59 20.37L134.93 22ZM137.36 15.93L136.28 18.61L138.44 18.61L137.36 15.93ZM148.80 22L146.42 22L146.42 13.60L150.27 13.60Q151.41 13.60 152.25 13.98Q153.08 14.35 153.54 15.06Q154.00 15.76 154.00 16.71L154.00 16.71Q154.00 17.62 153.57 18.30Q153.14 18.98 152.35 19.36L152.35 19.36L154.16 22L151.62 22L150.10 19.77L148.80 19.77L148.80 22ZM148.80 15.47L148.80 17.93L150.12 17.93Q150.85 17.93 151.22 17.61Q151.60 17.29 151.60 16.71L151.60 16.71Q151.60 16.12 151.22 15.79Q150.85 15.47 150.12 15.47L150.12 15.47L148.80 15.47ZM165.17 22L158.79 22L158.79 13.60L161.16 13.60L161.16 20.11L165.17 20.11L165.17 22ZM171.97 22L169.59 22L169.59 13.60L171.97 13.60L171.97 22ZM179.47 22L177.14 22L177.14 13.60L179.10 13.60L182.81 18.07L182.81 13.60L185.14 13.60L185.14 22L183.18 22L179.47 17.52L179.47 22ZM192.65 22L190.30 22L190.30 13.60L192.65 13.60L192.65 17.09L195.90 13.60L198.52 13.60L195.09 17.32L198.70 22L195.94 22L193.54 18.95L192.65 19.90L192.65 22ZM212.53 22L209.34 22L209.34 14.00L212.53 14.00L212.53 22ZM209.74 14.40L209.74 21.60L212.13 21.60L212.13 14.40L209.74 14.40ZM220.40 22L217.21 22L217.21 14.00L220.40 14.00L220.40 22ZM217.61 14.40L217.61 21.60L220.00 21.60L220.00 14.40L217.61 14.40Z" fill="#FFFFFF" x="90.08"/></svg>